# xmcd
#
# Track frame offsets: 
#        150
#        14329
#        26820
#        40451
#        55097
#        69958
#        88473
#        107490
#        120163
#        134323
#        156409
#        177362
#
# Disc length: 2570 seconds
#
# Revision: 3
# Processed by: cddbd v1.5.2PL0 Copyright (c) Steve Scherf et al.
# Submitted via: ExactAudioCopy v1.3
#
DISCID=9e0a080c
DTITLE=Johnny Cash Jerry Lee Lewis and Carl Perkins - The Survivors Li
DTITLE=ve
DYEAR=1982
DGENRE=Country
TTITLE0=Get Rhythm
TTITLE1=I Forgot to Remember to Forget
TTITLE2=Goin' Down the Road Feelin' Bad
TTITLE3=That Silver Haired Daddy of Mine
TTITLE4=Matchbox
TTITLE5=I'll Fly Away
TTITLE6=Whole Lot of Shakin' Going On
TTITLE7=Rockin' My Life Away
TTITLE8=Blue Suede Shoes
TTITLE9=Peace in the Valley
TTITLE10=Will the Circle Be Unbroken
TTITLE11=I Saw the Light
EXTD=YEAR: 1982 ID3G: 2
EXTT0=
EXTT1=
EXTT2=
EXTT3=
EXTT4=
EXTT5=
EXTT6=
EXTT7=
EXTT8=
EXTT9=
EXTT10=
EXTT11=
PLAYORDER=
